<svg xmlns="http://www.w3.org/2000/svg" version="1.1" xmlns:xlink="http://www.w3.org/1999/xlink" xmlns:svgjs="http://svgjs.dev/svgjs" width="1000" height="623" viewBox="0 0 1000 623"><g transform="matrix(1,0,0,1,-0.6060606060606233,0.2522267206477409)"><svg viewBox="0 0 396 247" data-background-color="#001f3f" preserveAspectRatio="xMidYMid meet" height="623" width="1000" xmlns="http://www.w3.org/2000/svg" xmlns:xlink="http://www.w3.org/1999/xlink"><g id="tight-bounds" transform="matrix(1,0,0,1,0.2400000000000091,-0.09999999999999432)"><svg viewBox="0 0 395.52 247.2" height="247.2" width="395.52"><g><svg></svg></g><g><svg viewBox="0 0 395.52 247.2" height="247.2" width="395.52"><mask id="d65745ec-0bd3-4c65-a67b-8056b588b809"><rect width="640" height="400" fill="white"></rect><g transform="matrix(1,0,0,1,65.08988335100742,37.08)"><svg viewBox="0 0 265.34023329798515 173.04" height="173.04" width="265.34023329798515"><g><svg viewBox="0 0 265.34023329798515 173.04" height="173.04" width="265.34023329798515"><g><svg viewBox="0 0 265.34023329798515 173.04" height="173.04" width="265.34023329798515"><g><svg viewBox="0 0 265.34023329798515 173.04" height="173.04" width="265.34023329798515"><g id="SvgjsG2218"><svg viewBox="0 0 265.34023329798515 173.04" height="173.04" width="265.34023329798515" id="SvgjsSvg2217"><g><svg viewBox="0 0 265.34023329798515 173.04" height="173.04" width="265.34023329798515"><g transform="matrix(1,0,0,1,0,0)"><svg width="265.34023329798515" viewBox="-1 -34.10000038146973 73.30000305175781 48.150001525878906" height="173.04" data-palette-color="#ffffff"><path d="M20.7-10.5L20.7-10.5Q20.7-11.95 20.25-13.18 19.8-14.4 18.95-15.3 18.1-16.2 16.9-16.73 15.7-17.25 14.2-17.25L14.2-17.25Q12.7-17.25 11.43-16.73 10.15-16.2 9.25-15.3 8.35-14.4 7.83-13.18 7.3-11.95 7.3-10.5L7.3-10.5Q7.3-9.05 7.83-7.8 8.35-6.55 9.25-5.65 10.15-4.75 11.43-4.23 12.7-3.7 14.2-3.7L14.2-3.7Q15.7-3.7 16.9-4.23 18.1-4.75 18.95-5.68 19.8-6.6 20.25-7.83 20.7-9.05 20.7-10.5ZM25.35-10.4L25.35-10.4Q25.35-8.05 24.55-6.05 23.75-4.05 22.3-2.6 20.85-1.15 18.82-0.33 16.8 0.5 14.4 0.5L14.4 0.5Q13.15 0.5 12.03 0.23 10.9-0.05 9.95-0.53 9-1 8.3-1.58 7.6-2.15 7.25-2.75L7.25-2.75Q7.25-2.5 7.28-2.23 7.3-1.95 7.3-1.7L7.3-1.7 7.3 10.05 3 10.05 3-20.9 7.15-20.9Q7.15-20.3 7.23-19.43 7.3-18.55 7.3-17.85L7.3-17.85Q7.7-18.45 8.38-19.07 9.05-19.7 9.98-20.23 10.9-20.75 12.05-21.1 13.2-21.45 14.6-21.45L14.6-21.45Q17-21.45 18.98-20.68 20.95-19.9 22.38-18.48 23.8-17.05 24.58-15 25.35-12.95 25.35-10.4ZM47.7-10.5L47.7-10.5Q47.7-11.95 47.25-13.18 46.8-14.4 45.95-15.3 45.1-16.2 43.9-16.73 42.7-17.25 41.2-17.25L41.2-17.25Q39.7-17.25 38.42-16.73 37.15-16.2 36.25-15.3 35.35-14.4 34.82-13.18 34.3-11.95 34.3-10.5L34.3-10.5Q34.3-9.05 34.82-7.8 35.35-6.55 36.25-5.65 37.15-4.75 38.42-4.23 39.7-3.7 41.2-3.7L41.2-3.7Q42.7-3.7 43.9-4.23 45.1-4.75 45.95-5.68 46.8-6.6 47.25-7.83 47.7-9.05 47.7-10.5ZM52.35-10.4L52.35-10.4Q52.35-8.05 51.55-6.05 50.75-4.05 49.3-2.6 47.85-1.15 45.82-0.33 43.8 0.5 41.4 0.5L41.4 0.5Q40.15 0.5 39.02 0.23 37.9-0.05 36.95-0.53 36-1 35.3-1.58 34.6-2.15 34.25-2.75L34.25-2.75Q34.25-2.5 34.27-2.23 34.3-1.95 34.3-1.7L34.3-1.7 34.3 10.05 30 10.05 30-20.9 34.15-20.9Q34.15-20.3 34.22-19.43 34.3-18.55 34.3-17.85L34.3-17.85Q34.7-18.45 35.37-19.07 36.05-19.7 36.97-20.23 37.9-20.75 39.05-21.1 40.2-21.45 41.6-21.45L41.6-21.45Q44-21.45 45.97-20.68 47.95-19.9 49.37-18.48 50.8-17.05 51.57-15 52.35-12.95 52.35-10.4ZM58.45-20.85L58.45-30.1 62.7-30.1 62.7-20.85 68.3-20.85 68.3-17.05 62.7-17.05 62.7 0 58.45 0 58.45-17.05 54.7-17.05 54.7-20.85 58.45-20.85Z" opacity="1" transform="matrix(1,0,0,1,0,0)" fill="black" class="wordmark-text-0" id="SvgjsPath2216" stroke-width="7" stroke="black" stroke-linejoin="round"></path></svg></g></svg></g></svg></g></svg></g><g></g></svg></g></svg></g></svg></g></mask><g transform="matrix(1,0,0,1,65.08988335100742,37.08)"><svg viewBox="0 0 265.34023329798515 173.04" height="173.04" width="265.34023329798515"><g><svg viewBox="0 0 265.34023329798515 173.04" height="173.04" width="265.34023329798515"><g><svg viewBox="0 0 265.34023329798515 173.04" height="173.04" width="265.34023329798515"><g><svg viewBox="0 0 265.34023329798515 173.04" height="173.04" width="265.34023329798515"><g id="textblocktransform"><svg viewBox="0 0 265.34023329798515 173.04" height="173.04" width="265.34023329798515" id="textblock"><g><svg viewBox="0 0 265.34023329798515 173.04" height="173.04" width="265.34023329798515"><g transform="matrix(1,0,0,1,0,0)"><svg width="265.34023329798515" viewBox="-1 -34.10000038146973 73.30000305175781 48.150001525878906" height="173.04" data-palette-color="#ffffff"><path d="M20.7-10.5L20.7-10.5Q20.7-11.95 20.25-13.18 19.8-14.4 18.95-15.3 18.1-16.2 16.9-16.73 15.7-17.25 14.2-17.25L14.2-17.25Q12.7-17.25 11.43-16.73 10.15-16.2 9.25-15.3 8.35-14.4 7.83-13.18 7.3-11.95 7.3-10.5L7.3-10.5Q7.3-9.05 7.83-7.8 8.35-6.55 9.25-5.65 10.15-4.75 11.43-4.23 12.7-3.7 14.2-3.7L14.2-3.7Q15.7-3.7 16.9-4.23 18.1-4.75 18.95-5.68 19.8-6.6 20.25-7.83 20.7-9.05 20.7-10.5ZM25.35-10.4L25.35-10.4Q25.35-8.05 24.55-6.05 23.75-4.05 22.3-2.6 20.85-1.15 18.82-0.33 16.8 0.5 14.4 0.5L14.4 0.5Q13.15 0.5 12.03 0.23 10.9-0.05 9.95-0.53 9-1 8.3-1.58 7.6-2.15 7.25-2.75L7.25-2.75Q7.25-2.5 7.28-2.23 7.3-1.95 7.3-1.7L7.3-1.7 7.3 10.05 3 10.05 3-20.9 7.15-20.9Q7.15-20.3 7.23-19.43 7.3-18.55 7.3-17.85L7.3-17.85Q7.7-18.45 8.38-19.07 9.05-19.7 9.98-20.23 10.9-20.75 12.05-21.1 13.2-21.45 14.6-21.45L14.6-21.45Q17-21.45 18.98-20.68 20.95-19.9 22.38-18.48 23.8-17.05 24.58-15 25.35-12.95 25.35-10.4ZM47.7-10.5L47.7-10.5Q47.7-11.95 47.25-13.18 46.8-14.4 45.95-15.3 45.1-16.2 43.9-16.73 42.7-17.25 41.2-17.25L41.2-17.25Q39.7-17.25 38.42-16.73 37.15-16.2 36.25-15.3 35.35-14.4 34.82-13.18 34.3-11.95 34.3-10.5L34.3-10.5Q34.3-9.05 34.82-7.8 35.35-6.55 36.25-5.65 37.15-4.75 38.42-4.23 39.7-3.7 41.2-3.7L41.2-3.7Q42.7-3.7 43.9-4.23 45.1-4.75 45.95-5.68 46.8-6.6 47.25-7.83 47.7-9.05 47.7-10.5ZM52.35-10.4L52.35-10.4Q52.35-8.05 51.55-6.05 50.75-4.05 49.3-2.6 47.85-1.15 45.82-0.33 43.8 0.5 41.4 0.5L41.4 0.5Q40.15 0.5 39.02 0.23 37.9-0.05 36.95-0.53 36-1 35.3-1.58 34.6-2.15 34.25-2.75L34.25-2.75Q34.25-2.5 34.27-2.23 34.3-1.95 34.3-1.7L34.3-1.7 34.3 10.05 30 10.05 30-20.9 34.15-20.9Q34.15-20.3 34.22-19.43 34.3-18.55 34.3-17.85L34.3-17.85Q34.7-18.45 35.37-19.07 36.05-19.7 36.97-20.23 37.9-20.75 39.05-21.1 40.2-21.45 41.6-21.45L41.6-21.45Q44-21.45 45.97-20.68 47.95-19.9 49.37-18.48 50.8-17.05 51.57-15 52.35-12.95 52.35-10.4ZM58.45-20.85L58.45-30.1 62.7-30.1 62.7-20.85 68.3-20.85 68.3-17.05 62.7-17.05 62.7 0 58.45 0 58.45-17.05 54.7-17.05 54.7-20.85 58.45-20.85Z" opacity="1" transform="matrix(1,0,0,1,0,0)" fill="#ffffff" class="wordmark-text-0" data-fill-palette-color="primary" id="text-0"></path></svg></g></svg></g></svg></g></svg></g><g></g></svg></g></svg></g></svg></g><g mask="url(#d65745ec-0bd3-4c65-a67b-8056b588b809)"><g transform="matrix(3.0459627329192545, 0, 0, 3.0459627329192545, 63.73763975155279, 1)"><svg xmlns:x="http://ns.adobe.com/Extensibility/1.0/" xmlns:i="http://ns.adobe.com/AdobeIllustrator/10.0/" xmlns:graph="http://ns.adobe.com/Graphs/1.0/" xmlns="http://www.w3.org/2000/svg" xmlns:xlink="http://www.w3.org/1999/xlink" version="1.1" x="0" y="0" viewBox="6 8.5 88 80.5" enable-background="new 0 0 100 100" xml:space="preserve" height="80.5" width="88" class="icon-none" data-fill-palette-color="accent" id="none"><g fill="#ff7f50" data-fill-palette-color="accent"><path d="M65 51H27.5C18.402 51 11 58.402 11 67.5S18.402 84 27.5 84H65c9.098 0 16.5-7.402 16.5-16.5S74.098 51 65 51zM65 81H27.5C20.056 81 14 74.944 14 67.5S20.056 54 27.5 54H65c7.444 0 13.5 6.056 13.5 13.5S72.444 81 65 81z" fill="#ff7f50" data-fill-palette-color="accent"></path><path d="M65 56H27.5C21.159 56 16 61.159 16 67.5S21.159 79 27.5 79H65c6.341 0 11.5-5.159 11.5-11.5S71.341 56 65 56zM65 76H27.5c-4.687 0-8.5-3.813-8.5-8.5s3.813-8.5 8.5-8.5H65c4.687 0 8.5 3.813 8.5 8.5S69.687 76 65 76z" fill="#ff7f50" data-fill-palette-color="accent"></path><path d="M92.5 54c0.828 0 1.5-0.672 1.5-1.5S93.328 51 92.5 51H79c-0.073 0-0.145 0.012-0.215 0.021-0.899-0.753-1.87-1.421-2.886-2.021H92.5c0.828 0 1.5-0.671 1.5-1.5S93.328 46 92.5 46H65 27.5C15.645 46 6 55.645 6 67.5S15.645 89 27.5 89H65c11.855 0 21.5-9.645 21.5-21.5 0-3.019-0.632-5.891-1.76-8.5h7.76c0.828 0 1.5-0.672 1.5-1.5S93.328 56 92.5 56h-9.365c-0.44-0.692-0.91-1.364-1.425-2H92.5zM65 86H27.5C17.299 86 9 77.701 9 67.5S17.299 49 27.5 49H65c10.201 0 18.5 8.299 18.5 18.5S75.201 86 65 86z" fill="#ff7f50" data-fill-palette-color="accent"></path><path d="M35 42.639l1.234-1.787C37.285 39.332 46.5 25.823 46.5 20c0-6.341-5.159-11.5-11.5-11.5S23.5 13.659 23.5 20c0 5.823 9.215 19.332 10.266 20.853L35 42.639zM35 11.5c4.687 0 8.5 3.813 8.5 8.5 0 3.611-5.336 12.492-8.5 17.311C31.836 32.493 26.5 23.614 26.5 20 26.5 15.313 30.313 11.5 35 11.5z" fill="#ff7f50" data-fill-palette-color="accent"></path><path d="M41.5 20c0-3.584-2.916-6.5-6.5-6.5s-6.5 2.916-6.5 6.5 2.916 6.5 6.5 6.5S41.5 23.584 41.5 20zM31.5 20c0-1.93 1.57-3.5 3.5-3.5s3.5 1.57 3.5 3.5-1.57 3.5-3.5 3.5S31.5 21.93 31.5 20z" fill="#ff7f50" data-fill-palette-color="accent"></path></g></svg></g></g></svg></g><defs></defs></svg><rect width="395.52" height="247.2" fill="none" stroke="none" visibility="hidden"></rect></g></svg></g></svg>